<svg width="16" height="16" viewBox="0 0 16 16" fill="none" xmlns="http://www.w3.org/2000/svg">
<path fill-rule="evenodd" clip-rule="evenodd" d="M7.33325 2.66668C4.75592 2.66668 2.66659 4.75601 2.66659 7.33334C2.66659 9.91067 4.75592 12 7.33325 12C9.91058 12 11.9999 9.91067 11.9999 7.33334C11.9999 4.75601 9.91058 2.66668 7.33325 2.66668ZM1.33325 7.33334C1.33325 4.01963 4.01954 1.33334 7.33325 1.33334C10.647 1.33334 13.3333 4.01963 13.3333 7.33334C13.3333 10.6471 10.647 13.3333 7.33325 13.3333C4.01954 13.3333 1.33325 10.6471 1.33325 7.33334Z" fill="black"/>
<path fill-rule="evenodd" clip-rule="evenodd" d="M10.6285 10.6286C10.8889 10.3683 11.311 10.3683 11.5713 10.6286L14.4713 13.5286C14.7317 13.789 14.7317 14.2111 14.4713 14.4714C14.211 14.7318 13.7889 14.7318 13.5285 14.4714L10.6285 11.5714C10.3682 11.3111 10.3682 10.889 10.6285 10.6286Z" fill="black"/>
</svg>
